<svg width="16" height="16" viewBox="0 0 16 16" fill="none" xmlns="http://www.w3.org/2000/svg">
<path d="M6.799 1.21598L4.94 4.98698L0.779999 5.59398C0.612163 5.61936 0.454743 5.69109 0.325452 5.80108C0.196162 5.91106 0.100134 6.05495 0.0481736 6.21655C-0.00378683 6.37815 -0.00961696 6.55104 0.0313392 6.71577C0.0722953 6.8805 0.158412 7.03053 0.279999 7.14898L3.29 10.082L2.578 14.225C2.54945 14.3924 2.56827 14.5644 2.63231 14.7217C2.69636 14.879 2.8031 15.0152 2.94048 15.1151C3.07785 15.2149 3.2404 15.2744 3.40977 15.2867C3.57914 15.2991 3.74859 15.2638 3.899 15.185L7.621 13.229L11.343 15.185C11.4934 15.2638 11.6629 15.2991 11.8322 15.2867C12.0016 15.2744 12.1641 15.2149 12.3015 15.1151C12.4389 15.0152 12.5456 14.879 12.6097 14.7217C12.6737 14.5644 12.6925 14.3924 12.664 14.225L11.948 10.081L14.958 7.14798C15.0796 7.02953 15.1657 6.8795 15.2067 6.71477C15.2476 6.55004 15.2418 6.37715 15.1898 6.21555C15.1379 6.05395 15.0418 5.91006 14.9125 5.80008C14.7833 5.69009 14.6258 5.61836 14.458 5.59298L10.298 4.98598L8.434 1.21598C8.35862 1.06355 8.24212 0.93523 8.09767 0.845513C7.95321 0.755795 7.78655 0.708252 7.6165 0.708252C7.44645 0.708252 7.27979 0.755795 7.13533 0.845513C6.99087 0.93523 6.87438 1.06355 6.799 1.21598Z" fill="#06C167"/>
</svg>
