<svg width="32" height="32" viewBox="0 0 32 32" fill="none" xmlns="http://www.w3.org/2000/svg">
<path d="M26.42 9.874H7.063C6.85244 9.86661 6.65298 9.77777 6.50664 9.62621C6.3603 9.47464 6.27851 9.27218 6.27851 9.0615C6.27851 8.85082 6.3603 8.64836 6.50664 8.49679C6.65298 8.34523 6.85244 8.25639 7.063 8.249H26.563C26.6697 8.24913 26.7754 8.22823 26.874 8.18748C26.9727 8.14673 27.0623 8.08694 27.1378 8.01152C27.2133 7.93611 27.2732 7.84655 27.3141 7.74797C27.355 7.64939 27.376 7.54372 27.376 7.437C27.376 7.11697 27.313 6.80007 27.1905 6.5044C27.068 6.20873 26.8885 5.94008 26.6622 5.71378C26.4359 5.48748 26.1673 5.30798 25.8716 5.18551C25.5759 5.06303 25.259 5 24.939 5H6.25C5.38822 5 4.56172 5.34227 3.95226 5.95155C3.34279 6.56083 3.00027 7.38722 3 8.249L3 24.499C3 25.361 3.34241 26.1876 3.9519 26.7971C4.5614 27.4066 5.38805 27.749 6.25 27.749H26.42C27.085 27.7668 27.7299 27.5203 28.2134 27.0635C28.697 26.6067 28.9799 25.9769 29 25.312V12.312C28.9801 11.6469 28.6974 11.0169 28.2138 10.5599C27.7302 10.1029 27.0851 9.85624 26.42 9.874V9.874ZM24.12 20.437C23.7986 20.437 23.4844 20.3417 23.2172 20.1631C22.95 19.9846 22.7417 19.7308 22.6187 19.4339C22.4957 19.1369 22.4635 18.8102 22.5262 18.495C22.5889 18.1798 22.7437 17.8902 22.971 17.663C23.1982 17.4357 23.4878 17.2809 23.803 17.2182C24.1182 17.1555 24.4449 17.1877 24.7419 17.3107C25.0388 17.4337 25.2926 17.642 25.4711 17.9092C25.6497 18.1764 25.745 18.4906 25.745 18.812C25.745 19.2421 25.5745 19.6547 25.2708 19.9593C24.9672 20.2639 24.5551 20.4357 24.125 20.437H24.12Z" fill="#06C167"/>
</svg>
