<svg width="32" height="32" viewBox="0 0 32 32" fill="none" xmlns="http://www.w3.org/2000/svg">
<path d="M11.6912 11.6873C12.1567 11.221 12.4736 10.6272 12.6017 9.98083C12.7299 9.3345 12.6636 8.66469 12.4112 8.05604C12.1587 7.4474 11.7316 6.92723 11.1836 6.56127C10.6357 6.19532 9.99159 6 9.33268 6C8.67378 6 8.02966 6.19532 7.48172 6.56127C6.93378 6.92723 6.50662 7.4474 6.25422 8.05604C6.00181 8.66469 5.93549 9.3345 6.06363 9.98083C6.19178 10.6272 6.50864 11.221 6.97417 11.6873C7.28371 11.9973 7.65135 12.2433 8.05605 12.4112C8.46075 12.579 8.89457 12.6654 9.33268 12.6654C9.7708 12.6654 10.2046 12.579 10.6093 12.4112C11.014 12.2433 11.3817 11.9973 11.6912 11.6873V11.6873ZM25.0219 20.301C24.5556 19.8355 23.9618 19.5186 23.3155 19.3905C22.6691 19.2623 21.9993 19.3286 21.3907 19.581C20.782 19.8334 20.2619 20.2606 19.8959 20.8085C19.53 21.3565 19.3346 22.0006 19.3346 22.6595C19.3346 23.3184 19.53 23.9625 19.8959 24.5105C20.2619 25.0584 20.782 25.4856 21.3907 25.738C21.9993 25.9904 22.6691 26.0567 23.3155 25.9286C23.9618 25.8004 24.5556 25.4836 25.0219 25.018C25.332 24.7085 25.578 24.3408 25.7458 23.9361C25.9136 23.5314 26 23.0976 26 22.6595C26 22.2214 25.9136 21.7876 25.7458 21.3829C25.578 20.9782 25.332 20.6105 25.0219 20.301V20.301ZM24.9194 8.25001L23.7422 7.07281C23.5875 6.91766 23.4037 6.79456 23.2013 6.71057C22.999 6.62658 22.782 6.58335 22.5629 6.58335C22.3438 6.58335 22.1269 6.62658 21.9245 6.71057C21.7222 6.79456 21.5384 6.91766 21.3837 7.07281L7.07979 21.3808C6.92464 21.5355 6.80154 21.7193 6.71755 21.9216C6.63356 22.124 6.59033 22.3409 6.59033 22.56C6.59033 22.7791 6.63356 22.9961 6.71755 23.1984C6.80154 23.4008 6.92464 23.5846 7.07979 23.7393L8.25802 24.9155C8.41272 25.0706 8.59652 25.1937 8.79888 25.2777C9.00124 25.3617 9.21818 25.4049 9.43728 25.4049C9.65638 25.4049 9.87332 25.3617 10.0757 25.2777C10.278 25.1937 10.4618 25.0706 10.6165 24.9155L24.9204 10.6075C25.0756 10.4528 25.1987 10.269 25.2826 10.0666C25.3666 9.86429 25.4099 9.64734 25.4099 9.42825C25.4099 9.20915 25.3666 8.9922 25.2826 8.78985C25.1987 8.58749 25.0756 8.40369 24.9204 8.24899L24.9194 8.25001Z" fill="#06C167"/>
</svg>
