<svg width="32" height="32" viewBox="0 0 32 32" fill="none" xmlns="http://www.w3.org/2000/svg">
<path d="M15.999 3C14.2917 2.99895 12.6009 3.38251 11.0234 4.12874C9.44588 4.87498 8.01252 5.96926 6.80527 7.34902C5.59802 8.72878 4.64055 10.367 3.98762 12.1699C3.33468 13.9729 2.99908 15.9052 3 17.8565V20.6427C3.00024 20.9877 3.08457 21.3258 3.24352 21.619C3.40248 21.9123 3.62978 22.1492 3.89993 22.3032L4.62988 22.7203C4.67993 24.4049 5.30066 26.0013 6.36107 27.1727C7.42149 28.3442 8.83864 28.9989 10.3134 28.9989H11.5303C11.8536 28.9989 12.1637 28.8521 12.3922 28.5908C12.6208 28.3296 12.7493 27.9752 12.7493 27.6058V17.3925C12.7493 17.023 12.6208 16.6687 12.3922 16.4075C12.1637 16.1462 11.8536 15.9994 11.5303 15.9994H10.3124C9.55554 15.9984 8.80611 16.1705 8.10836 16.5058C7.4106 16.841 6.77865 17.3325 6.24975 17.9513V17.8565C6.24975 14.9014 7.2769 12.0672 9.10524 9.97765C10.9336 7.88805 13.4133 6.71413 15.999 6.71413C18.5847 6.71413 21.0644 7.88805 22.8928 9.97765C24.7211 12.0672 25.7482 14.9014 25.7482 17.8565V17.9513C25.2195 17.3327 24.5877 16.8412 23.8901 16.506C23.1925 16.1708 22.4433 15.9985 21.6866 15.9994H20.4677C20.3076 15.9994 20.1491 16.0355 20.0012 16.1055C19.8533 16.1755 19.7189 16.2781 19.6058 16.4075C19.4926 16.5368 19.4028 16.6904 19.3415 16.8594C19.2803 17.0284 19.2487 17.2096 19.2487 17.3925V27.6069C19.2487 27.7899 19.2803 27.971 19.3415 28.14C19.4028 28.309 19.4926 28.4626 19.6058 28.592C19.7189 28.7213 19.8533 28.8239 20.0012 28.894C20.1491 28.964 20.3076 29 20.4677 29H21.6866C23.1614 29.0001 24.5785 28.3453 25.6389 27.1739C26.6993 26.0025 27.3201 24.406 27.3701 22.7214L28.1001 22.3043C28.3702 22.1504 28.5975 21.9135 28.7565 21.6202C28.9154 21.3269 28.9998 20.9888 29 20.6438V17.8565C29.0009 15.905 28.6653 13.9725 28.0122 12.1694C27.3591 10.3663 26.4015 8.72801 25.194 7.34821C23.9866 5.96842 22.553 4.87419 20.9752 4.12809C19.3974 3.38199 17.7065 2.99865 15.999 3Z" fill="#06C167"/>
</svg>
