<svg width="32" height="32" viewBox="0 0 32 32" fill="none" xmlns="http://www.w3.org/2000/svg">
<path d="M29.2996 20.3995H28.6V15.6707C28.5989 15.1143 28.3771 14.581 27.9832 14.188L23.6119 9.81671C23.2189 9.42283 22.6856 9.20098 22.1292 9.19987H20.1994V7.10037C20.1994 6.54346 19.9783 6.00936 19.5846 5.61549C19.1909 5.22162 18.6568 5.00023 18.0999 5H4.10037C3.54331 5 3.00908 5.22129 2.61518 5.61518C2.22129 6.00908 2 6.54331 2 7.10037V21.0999C2 21.657 2.22129 22.1912 2.61518 22.5851C3.00908 22.979 3.54331 23.2003 4.10037 23.2003H4.79991C4.79991 24.3142 5.2424 25.3824 6.03003 26.1701C6.81766 26.9577 7.88591 27.4002 8.99978 27.4002C10.1137 27.4002 11.1819 26.9577 11.9695 26.1701C12.7572 25.3824 13.1997 24.3142 13.1997 23.2003H18.7995C18.7995 24.3142 19.242 25.3824 20.0296 26.1701C20.8172 26.9577 21.8855 27.4002 22.9994 27.4002C24.1132 27.4002 25.1815 26.9577 25.9691 26.1701C26.7567 25.3824 27.1992 24.3142 27.1992 23.2003H29.2996C29.4851 23.1998 29.6628 23.126 29.794 22.995C29.9253 22.8639 29.9993 22.6862 30 22.5008V21.0999C29.9995 20.9143 29.9256 20.7364 29.7944 20.6052C29.6631 20.4739 29.4852 20.4 29.2996 20.3995ZM8.99978 25.2998C8.58433 25.2998 8.17822 25.1766 7.83279 24.9458C7.48737 24.7149 7.21816 24.3869 7.05922 24.003C6.90027 23.6192 6.85873 23.1968 6.93984 22.7894C7.02095 22.3819 7.22108 22.0077 7.51491 21.714C7.80873 21.4202 8.18306 21.2203 8.59055 21.1393C8.99804 21.0584 9.42038 21.1001 9.80416 21.2592C10.1879 21.4183 10.5159 21.6877 10.7466 22.0332C10.9773 22.3787 11.1003 22.7849 11.1002 23.2003C11.0999 23.7572 10.8785 24.2912 10.4847 24.6849C10.0908 25.0786 9.55669 25.2998 8.99978 25.2998V25.2998ZM22.9994 25.2998C22.5839 25.2998 22.1778 25.1766 21.8324 24.9458C21.4869 24.7149 21.2177 24.3869 21.0588 24.003C20.8998 23.6192 20.8583 23.1968 20.9394 22.7894C21.0205 22.3819 21.2206 22.0077 21.5145 21.714C21.8083 21.4202 22.1826 21.2203 22.5901 21.1393C22.9976 21.0584 23.4199 21.1001 23.8037 21.2592C24.1875 21.4183 24.5155 21.6877 24.7462 22.0332C24.9769 22.3787 25.0999 22.7849 25.0997 23.2003C25.0995 23.7572 24.8781 24.2912 24.4842 24.6849C24.0904 25.0786 23.5563 25.2998 22.9994 25.2998V25.2998ZM26.4997 16.1997H20.1994V11.3002H22.1284L26.4988 15.6707L26.4997 16.1997Z" fill="#06C167"/>
</svg>
